<svg width="473" height="72" viewBox="0 0 473 72" fill="none" xmlns="http://www.w3.org/2000/svg">
<path d="M473 0V56.126L454.869 72H0V59.9928L59.9568 0H473Z" fill="#151815"/>
<path d="M85.05 33.17H93.63V37.85C92.97 39.91 91.76 41.5 90 42.62C88.24 43.74 86.16 44.3 83.76 44.3C80.78 44.3 78.26 43.25 76.2 41.15C74.16 39.05 73.14 36.5 73.14 33.5C73.14 30.5 74.16 27.95 76.2 25.85C78.26 23.75 80.78 22.7 83.76 22.7C85.86 22.7 87.71 23.21 89.31 24.23C90.93 25.23 92.19 26.6 93.09 28.34L90.57 29.69C89.91 28.41 88.99 27.4 87.81 26.66C86.63 25.92 85.28 25.55 83.76 25.55C81.56 25.55 79.71 26.33 78.21 27.89C76.73 29.43 75.99 31.3 75.99 33.5C75.99 35.7 76.73 37.58 78.21 39.14C79.71 40.68 81.56 41.45 83.76 41.45C87.26 41.45 89.57 40.03 90.69 37.19V35.93H85.05V33.17ZM113.878 41.15C111.838 43.25 109.328 44.3 106.348 44.3C103.368 44.3 100.848 43.25 98.7879 41.15C96.7479 39.05 95.7279 36.5 95.7279 33.5C95.7279 30.5 96.7479 27.95 98.7879 25.85C100.848 23.75 103.368 22.7 106.348 22.7C109.328 22.7 111.838 23.75 113.878 25.85C115.918 27.95 116.938 30.5 116.938 33.5C116.938 36.5 115.918 39.05 113.878 41.15ZM100.798 39.2C102.298 40.76 104.148 41.54 106.348 41.54C108.548 41.54 110.388 40.76 111.868 39.2C113.368 37.64 114.118 35.74 114.118 33.5C114.118 31.26 113.368 29.36 111.868 27.8C110.388 26.24 108.548 25.46 106.348 25.46C104.148 25.46 102.298 26.24 100.798 27.8C99.2979 29.36 98.5479 31.26 98.5479 33.5C98.5479 35.74 99.2979 37.64 100.798 39.2ZM133.03 44V25.52H125.83V23H143.05V25.52H135.85V44H133.03ZM161.749 41.15C159.709 43.25 157.199 44.3 154.219 44.3C151.239 44.3 148.719 43.25 146.659 41.15C144.619 39.05 143.599 36.5 143.599 33.5C143.599 30.5 144.619 27.95 146.659 25.85C148.719 23.75 151.239 22.7 154.219 22.7C157.199 22.7 159.709 23.75 161.749 25.85C163.789 27.95 164.809 30.5 164.809 33.5C164.809 36.5 163.789 39.05 161.749 41.15ZM148.669 39.2C150.169 40.76 152.019 41.54 154.219 41.54C156.419 41.54 158.259 40.76 159.739 39.2C161.239 37.64 161.989 35.74 161.989 33.5C161.989 31.26 161.239 29.36 159.739 27.8C158.259 26.24 156.419 25.46 154.219 25.46C152.019 25.46 150.169 26.24 148.669 27.8C147.169 29.36 146.419 31.26 146.419 33.5C146.419 35.74 147.169 37.64 148.669 39.2ZM175.321 44V23H189.391V25.52H178.141V32.24H189.151V34.7H178.141V41.48H189.391V44H175.321ZM191.25 44L198.3 33.5L191.4 23H194.73L200.13 31.37L205.53 23H208.86L201.99 33.5L208.98 44H205.65L200.13 35.63L194.61 44H191.25ZM211.708 44V23H219.778C221.718 23 223.348 23.6 224.668 24.8C225.988 25.98 226.648 27.6 226.648 29.66C226.648 31.7 225.988 33.32 224.668 34.52C223.348 35.72 221.718 36.32 219.778 36.32H214.528V44H211.708ZM214.528 33.86H219.628C220.908 33.86 221.938 33.48 222.718 32.72C223.498 31.96 223.888 30.94 223.888 29.66C223.888 28.38 223.498 27.36 222.718 26.6C221.938 25.82 220.908 25.43 219.628 25.43H214.528V33.86ZM229.667 44V23H243.737V25.52H232.487V32.24H243.497V34.7H232.487V41.48H243.737V44H229.667ZM262.669 44H259.549L255.319 35.78H249.889V44H247.069V23H255.499C257.419 23 259.039 23.58 260.359 24.74C261.679 25.88 262.339 27.43 262.339 29.39C262.339 30.89 261.939 32.16 261.139 33.2C260.359 34.24 259.309 34.97 257.989 35.39L262.669 44ZM249.889 25.52V33.35H255.229C256.509 33.35 257.539 33 258.319 32.3C259.119 31.58 259.519 30.63 259.519 29.45C259.519 28.27 259.119 27.32 258.319 26.6C257.539 25.88 256.509 25.52 255.229 25.52H249.889ZM265.175 44V23H267.995V44H265.175ZM272.294 44V23H275.534L283.424 37.25L291.254 23H294.524V44H291.674V27.83L284.504 40.58H282.284L275.114 27.86V44H272.294ZM298.778 44V23H312.848V25.52H301.598V32.24H312.608V34.7H301.598V41.48H312.848V44H298.778ZM316.181 44V23H319.391L330.641 39.5V23H333.461V44H330.251L319.001 27.5V44H316.181ZM343.323 44V25.52H336.123V23H353.343V25.52H346.143V44H343.323ZM352.408 44L360.988 23H363.988L372.748 44H369.658L367.948 39.83H357.178L355.498 44H352.408ZM358.108 37.22H366.988L362.518 26.27H362.458L358.108 37.22ZM375.214 44V23H378.034V41.39H389.134V44H375.214Z" fill="white"/>
<path d="M450.061 37.0607C450.646 36.4749 450.646 35.5251 450.061 34.9393L440.515 25.3934C439.929 24.8076 438.979 24.8076 438.393 25.3934C437.808 25.9792 437.808 26.9289 438.393 27.5147L446.879 36L438.393 44.4853C437.808 45.0711 437.808 46.0208 438.393 46.6066C438.979 47.1924 439.929 47.1924 440.515 46.6066L450.061 37.0607ZM408 37.5L449 37.5V34.5L408 34.5V37.5Z" fill="white"/>
</svg>
