<svg width="40" height="174" viewBox="0 0 40 174" fill="none" xmlns="http://www.w3.org/2000/svg">
<path d="M40 174.001H0V10.0008L10 0.000793457H40V174.001Z" fill="#151815"/>
<path d="M22.0433 12.3299C21.6528 11.9394 21.0196 11.9394 20.6291 12.3299L14.2651 18.6939C13.8746 19.0844 13.8746 19.7176 14.2651 20.1081C14.6556 20.4986 15.2888 20.4986 15.6793 20.1081L21.3362 14.4513L26.993 20.1081C27.3836 20.4986 28.0167 20.4986 28.4072 20.1081C28.7978 19.7176 28.7978 19.0844 28.4072 18.6939L22.0433 12.3299ZM22.3362 38.761L22.3362 13.037L20.3362 13.037L20.3362 38.761L22.3362 38.761Z" fill="white"/>
<path d="M27 164.088L13 164.088L13 162.208L25.26 162.208L25.26 154.808L27 154.808L27 164.088ZM27 153.053L13 153.053L13 143.673L14.68 143.673L14.68 151.173L19.16 151.173L19.16 143.833L20.8 143.833L20.8 151.173L25.32 151.173L25.32 143.673L27 143.673L27 153.053ZM27 137.634L14.68 137.634L14.68 142.434L13 142.434L13 130.954L14.68 130.954L14.68 135.754L27 135.754L27 137.634ZM17.1 130.006L13 129.266L13 127.766L17.1 128.606L17.1 130.006ZM27.22 121.148C27.22 122.468 26.9 123.622 26.26 124.608C25.6067 125.582 24.7 126.235 23.54 126.568L23.04 124.748C23.8267 124.508 24.4333 124.062 24.86 123.408C25.2867 122.755 25.5 121.995 25.5 121.128C25.5 120.208 25.2867 119.462 24.86 118.888C24.4333 118.302 23.8667 118.008 23.16 118.008C22.92 118.008 22.7067 118.042 22.52 118.108C22.32 118.175 22.1533 118.288 22.02 118.448C21.8733 118.608 21.7533 118.762 21.66 118.908C21.5533 119.042 21.4533 119.255 21.36 119.548C21.2533 119.828 21.18 120.048 21.14 120.208C21.1 120.355 21.04 120.615 20.96 120.988C20.8667 121.348 20.8 121.595 20.76 121.728C20.6533 122.142 20.5733 122.448 20.52 122.648C20.4533 122.848 20.3533 123.142 20.22 123.528C20.0867 123.902 19.96 124.195 19.84 124.408C19.72 124.608 19.5533 124.848 19.34 125.128C19.1267 125.395 18.9067 125.595 18.68 125.728C18.4533 125.862 18.18 125.982 17.86 126.088C17.5267 126.195 17.1667 126.248 16.78 126.248C15.6333 126.248 14.68 125.782 13.92 124.848C13.1467 123.915 12.76 122.762 12.76 121.388C12.76 120.162 13.06 119.135 13.66 118.308C14.26 117.468 15.1333 116.882 16.28 116.548L16.76 118.268C15.2133 118.775 14.44 119.808 14.44 121.368C14.44 122.248 14.6733 122.962 15.14 123.508C15.6067 124.042 16.16 124.308 16.8 124.308C16.9867 124.308 17.16 124.288 17.32 124.248C17.48 124.208 17.6267 124.142 17.76 124.048C17.88 123.955 17.9933 123.868 18.1 123.788C18.1933 123.695 18.2867 123.562 18.38 123.388C18.4733 123.202 18.5533 123.055 18.62 122.948C18.6733 122.842 18.74 122.668 18.82 122.428C18.8867 122.188 18.94 122.015 18.98 121.908C19.0067 121.788 19.06 121.588 19.14 121.308C19.2067 121.028 19.2533 120.835 19.28 120.728C19.3067 120.648 19.34 120.522 19.38 120.348C19.5267 119.815 19.64 119.408 19.72 119.128C19.8 118.835 19.9467 118.462 20.16 118.008C20.3733 117.555 20.6 117.215 20.84 116.988C21.0667 116.748 21.38 116.535 21.78 116.348C22.1667 116.162 22.6133 116.068 23.12 116.068C24.36 116.068 25.3533 116.555 26.1 117.528C26.8467 118.488 27.22 119.695 27.22 121.148ZM27 105.505L14.68 105.505L14.68 110.305L13 110.305L13 98.8248L14.68 98.8248L14.68 103.625L27 103.625L27 105.505ZM27 99.4483L13 93.7283L13 91.7283L27 85.8883L27 87.9483L24.22 89.0883L24.22 96.2683L27 97.3883L27 99.4483ZM22.48 95.6483L22.48 89.7283L15.18 92.7083L15.18 92.7483L22.48 95.6483ZM27 84.2444L13 84.2444L13 82.3644L25.26 82.3644L25.26 74.9644L27 74.9644L27 84.2444ZM27 73.2092L13 73.2092L13 71.3292L19.08 71.3292L19.08 68.5092L13 63.9892L13 61.6692L19.96 66.8692L27 61.4492L27 63.8092L20.88 68.5092L20.88 71.3292L27 71.3292L27 73.2092Z" fill="white"/>
</svg>
