<svg width="73" height="76" viewBox="0 0 73 76" fill="none" xmlns="http://www.w3.org/2000/svg">
<rect y="36.7425" width="12.874" height="12.874" fill="#171111"/>
<rect y="49.5225" width="12.874" height="12.874" fill="#171111"/>
<rect y="24.495" width="12.874" height="12.874" fill="#171111"/>
<rect width="12.874" height="12.874" fill="#171111"/>
<rect y="12.78" width="12.874" height="12.874" fill="#171111"/>
<rect x="12.78" width="12.874" height="12.874" fill="#171111"/>
<rect x="25.0275" width="12.874" height="12.874" fill="#171111"/>
<rect x="37.8075" width="12.874" height="12.874" fill="#171111"/>
<rect x="50.5875" width="12.874" height="12.874" fill="#171111"/>
<rect x="38.5278" y="62.2242" width="12.874" height="12.874" fill="#171111"/>
<rect x="51.12" y="62.3025" width="12.874" height="12.874" fill="#171111"/>
<rect x="60.0786" y="62.2242" width="12.874" height="12.874" fill="#171111"/>
<rect x="60.0786" width="12.874" height="12.874" fill="#171111"/>
<rect x="21.4565" y="45.0589" width="12.874" height="12.874" fill="#171111"/>
<rect x="21.4565" y="30.0393" width="12.874" height="15.0196" fill="#171111"/>
<rect x="34.3304" y="17.1653" width="12.874" height="12.874" fill="#171111"/>
<rect x="47.2046" y="17.1653" width="15.0196" height="12.874" fill="#171111"/>
<rect y="62.2242" width="12.874" height="12.874" fill="#171111"/>
<rect x="12.78" y="62.2242" width="12.874" height="12.874" fill="#171111"/>
<rect x="25.6539" y="62.2242" width="12.874" height="12.874" fill="#171111"/>
</svg>
