<svg width="54" height="51" viewBox="0 0 54 51" fill="none" xmlns="http://www.w3.org/2000/svg">
<rect width="8" height="51" fill="white"/>
<rect x="46" width="8" height="51" fill="white"/>
<rect x="8" y="3" width="2" height="12" fill="white"/>
<rect x="10" y="5" width="2" height="12" fill="white"/>
<rect x="12" y="7" width="2" height="12" fill="white"/>
<rect x="14" y="9" width="2" height="12" fill="white"/>
<rect x="16" y="10" width="2" height="12" fill="white"/>
<rect x="18" y="12" width="2" height="12" fill="white"/>
<rect x="20" y="15" width="2" height="12" fill="white"/>
<rect x="22" y="16" width="2" height="12" fill="white"/>
<rect x="24" y="18" width="2" height="12" fill="white"/>
<rect x="26" y="20" width="2" height="12" fill="white"/>
<rect x="28" y="20" width="2" height="12" fill="white"/>
<rect x="30" y="18" width="2" height="12" fill="white"/>
<rect x="32" y="16" width="2" height="12" fill="white"/>
<rect x="34" y="15" width="2" height="12" fill="white"/>
<rect x="36" y="13" width="2" height="12" fill="white"/>
<rect x="38" y="11" width="2" height="12" fill="white"/>
<rect x="40" y="8" width="2" height="12" fill="white"/>
<rect x="42" y="6" width="2" height="12" fill="white"/>
<rect x="44" y="3" width="2" height="12" fill="white"/>
<rect x="11" y="22" width="3" height="13" fill="white"/>
<rect x="38" y="26" width="3" height="13" fill="white"/>
<rect x="35" y="29" width="3" height="13" fill="white"/>
<rect x="17" y="28" width="3" height="13" fill="white"/>
<rect x="14" y="24" width="3" height="13" fill="white"/>
<rect x="41" y="22" width="3" height="13" fill="white"/>
<rect x="13" y="33" width="9" height="7" fill="white"/>
<rect x="16" y="36" width="9" height="7" fill="white"/>
<rect x="30" y="36" width="9" height="7" fill="white"/>
<rect x="33" y="33" width="9" height="7" fill="white"/>
<rect x="21" y="38" width="12" height="7" fill="white"/>
<rect x="21" y="2" width="12" height="8" fill="white"/>
<rect x="30" y="6" width="4" height="8" fill="white"/>
<rect x="22" y="6" width="4" height="8" fill="white"/>
<rect x="32" y="3" width="4" height="8" fill="white"/>
<rect x="19" y="3" width="4" height="8" fill="white"/>
<rect x="17" y="6" width="4" height="3" fill="white"/>
<rect x="34" y="6" width="4" height="3" fill="white"/>
</svg>
