<svg width="34" height="35" viewBox="0 0 34 35" fill="none" xmlns="http://www.w3.org/2000/svg">
<rect y="23" width="6" height="7" fill="#171111"/>
<rect y="17" width="6" height="6" fill="#171111"/>
<rect y="11" width="6" height="6" fill="#171111"/>
<rect y="4" width="6" height="7" fill="#171111"/>
<rect width="6" height="6" fill="#171111"/>
<rect x="6" width="7" height="6" fill="#171111"/>
<rect x="13" width="6" height="6" fill="#171111"/>
<rect x="19" width="6" height="6" fill="#171111"/>
<rect x="25" width="6" height="6" fill="#171111"/>
<rect x="25" y="29" width="6" height="6" fill="#171111"/>
<rect x="28" y="29" width="6" height="6" fill="#171111"/>
<rect x="28" width="6" height="6" fill="#171111"/>
<rect x="10" y="21" width="6" height="6" fill="#171111"/>
<rect x="10" y="14" width="6" height="7" fill="#171111"/>
<rect x="16" y="8" width="6" height="6" fill="#171111"/>
<rect x="22" y="8" width="7" height="6" fill="#171111"/>
<rect y="29" width="6" height="6" fill="#171111"/>
<rect x="6" y="29" width="7" height="6" fill="#171111"/>
<rect x="13" y="29" width="6" height="6" fill="#171111"/>
<rect x="19" y="29" width="6" height="6" fill="#171111"/>
</svg>
