<svg width="40" height="125" viewBox="0 0 40 125" fill="none" xmlns="http://www.w3.org/2000/svg">
<path d="M40 125.003H0V7.18714L10 0.00323486H40V125.003Z" fill="#D9D9D9"/>
<path d="M26.0576 114.651L12.7576 114.651L12.7576 112.599L21.7826 107.602L12.7576 102.643L12.7576 100.572L26.0576 100.572L26.0576 102.377L15.8166 102.377L23.8916 106.918L23.8916 108.324L15.8356 112.865L26.0576 112.865L26.0576 114.651ZM26.0576 97.8775L12.7576 97.8775L12.7576 88.9665L14.3536 88.9665L14.3536 96.0915L18.6096 96.0915L18.6096 89.1185L20.1676 89.1185L20.1676 96.0915L24.4616 96.0915L24.4616 88.9665L26.0576 88.9665L26.0576 97.8775ZM26.0576 86.856L12.7576 86.856L12.7576 84.823L23.2076 77.698L12.7576 77.698L12.7576 75.912L26.0576 75.912L26.0576 77.945L15.6076 85.07L26.0576 85.07L26.0576 86.856ZM26.2476 68.0128C26.2476 69.5454 25.7599 70.8311 24.7846 71.8698C23.8093 72.9084 22.5363 73.4278 20.9656 73.4278L12.7576 73.4278L12.7576 71.6228L20.6426 71.6228C21.7699 71.6228 22.7009 71.2871 23.4356 70.6158C24.1703 69.9444 24.5376 69.0768 24.5376 68.0128C24.5376 66.9488 24.1703 66.0874 23.4356 65.4288C22.7009 64.7574 21.7699 64.4218 20.6426 64.4218L12.7576 64.4218L12.7576 62.6358L20.9656 62.6358C22.5363 62.6358 23.8093 63.1551 24.7846 64.1938C25.7599 65.2198 26.2476 66.4928 26.2476 68.0128Z" fill="black"/>
<path d="M29.8 26.479L22.1 26.479L22.1 34.179L18.15 34.179L18.15 26.479L10.45 26.479L10.45 22.529L18.15 22.529L18.15 14.779L22.1 14.779L22.1 22.529L29.8 22.529L29.8 26.479Z" fill="black"/>
</svg>
